<?xml version="1.0" encoding="utf-8"?>
<!-- Generator: Adobe Illustrator 21.0.0, SVG Export Plug-In . SVG Version: 6.00 Build 0)  -->
<svg version="1.1" id="logo-img" xmlns="http://www.w3.org/2000/svg" xmlns:xlink="http://www.w3.org/1999/xlink" x="0px"
	 y="0px" viewBox="0 0 250 200" style="enable-background:new 0 0 250 200;" xml:space="preserve">
<path d="M176.1,86.1c-0.1-0.2-0.3-0.3-0.5-0.4c-5-2.5-11.5-2.5-17-3.2c-7-0.8-14-1.5-21-2.1c0.7-10.7,1.4-21.4,5.9-31.2
	c5.8,0.1,11.6-0.8,17.3-1.8c1.6,0.5,2.8-1.8,1.2-2.7c-3.9-2.3-8.4-4-13-4c-3.9,0-5.7,2.4-7.4,5.5c-9.8-1.1-15.4-7.3-23.6-11.9
	c-6.4-3.6-13.7-3.7-20.4-1c-6,2.4-9.6,7.8-8.7,14.3c0.5,3.6,2.3,6.7,3.7,9.9c2.1,4.6,3.3,9.2,3,14.1C88.3,64,80.9,56.6,73.5,49.2
	c-1.2-1.3-3.1,0.3-2.4,1.8c4.5,9.2,10,17.7,16.2,25.7c-6.4-0.5-12.8-1-19.1-1.3c-3.9-0.2-5.9,0.4-6.2,4.8
	c-0.7,10.4,12.4,15.5,20.8,18.5c-4.9,10.6-7.8,21.8-10.5,33.1c-0.7,3.2-1.5,6.4-2.2,9.6c-0.3,1.4-1,3.3-0.6,4.8c0.9,3.5,5,3.6,8,3.8
	c10.7,0.8,23.1-2.4,32.3-7.9c9.2-5.4,15.2-15.5,19.5-25c9.1,7,18.4,13.7,27.7,20.4c1.4,1,3-1.2,1.8-2.4c-4.6-4.6-9.2-9.3-13.8-13.9
	c-3.1-3.1-6.1-6.1-9.2-9.2c-0.9-0.9-2.1-1.8-2.9-2.9c-1.1-1.6-0.8-0.5-0.1-1.6c5.5-0.4,10.9-1.1,16.3-2.1c3.1-0.5,6.2-1.2,9.4-1.7
	c3-0.6,6.6-0.7,9.6-1.6c0.3,0.2,0.7,0.3,1.2,0.1c0.7-0.3,1.5-0.5,2.2-0.8c0.5-0.1,0.8-0.4,1-0.9c0.1-0.3,0.2-0.6,0.1-1
	c0,0,0-0.1,0-0.1c2-1.8,3.8-4.1,5-5.9C179.4,90.9,178.5,88.2,176.1,86.1z M145.4,45.5c2.2-2.6,4.1-2.1,6.8-1.6
	c1.3,0.3,2.6,0.7,3.9,1.1c-3.7,0.6-7.4,1-11.2,1.1C145.1,45.9,145.2,45.7,145.4,45.5z M167.2,99.1c-3.5,1.1-7.6,1.4-11.2,2
	c-8,1.5-15.9,2.9-24,3.4c-0.7,0-1.2,0.4-1.4,1.1c-0.3,1-0.6,2-1,3c-0.2,0.5,0,1.1,0.4,1.5c4.7,4.7,9.3,9.4,14,14.1
	c-4.7-3.5-9.4-7-14.1-10.6c-0.7-0.5-1.9-0.7-2.4,0.3c-3.7,8.2-8.4,17.2-15.5,23c-7.4,6.1-18.8,9.3-28.2,10c-2.1,0.2-4.2,0.2-6.2,0
	c-4.9-0.4-5-2.5-4.1-6.5c1.1-4.6,2.1-9.2,3.2-13.8c2.4-9.6,5.2-19.1,9.5-28c0.4-0.9,0.1-1.9-0.9-2.2c-4.1-1.5-8.1-3.2-11.9-5.3
	c-3.2-1.8-11.1-7.1-7.6-11.5c0.3-1.5,1.1-1.9,2.6-1.2c1.2,0.1,2.5,0.2,3.7,0.3c1.9,0.1,3.7,0.3,5.6,0.4c4.4,0.3,8.7,0.6,13.1,0.9
	c1.4,0.1,1.8-1.6,1.1-2.6c-4.8-6-9.2-12.2-13-18.8c5.7,5.8,11.4,11.5,17.2,17.3c0.7,0.7,2.3,0.5,2.5-0.7c1-6.2,0.2-12.1-2.4-17.8
	c-1.9-4.4-5.1-9.1-4-14.1c1.1-5.1,5.8-7.4,10.5-8.5c9.1-2,15,2.3,21.9,7.4c5,3.6,10,5.9,15.9,6.7c-4.5,10.4-5.1,21.6-5.8,32.9
	c-0.1,0.9,0.7,1.4,1.5,1.5c6.3,0.5,12.6,1.1,18.9,1.9c6,0.7,13.7,0.4,19.2,3.2C177.5,91.6,169.8,98.3,167.2,99.1z"/>
</svg>
