<svg xmlns="http://www.w3.org/2000/svg" viewBox="0 0 250 200"><path d="M176.1 86.1c-.1-.2-.3-.3-.5-.4-5-2.5-11.5-2.5-17-3.2-7-.8-14-1.5-21-2.1.7-10.7 1.4-21.4 5.9-31.2 5.8.1 11.6-.8 17.3-1.8 1.6.5 2.8-1.8 1.2-2.7-3.9-2.3-8.4-4-13-4-3.9 0-5.7 2.4-7.4 5.5-9.8-1.1-15.4-7.3-23.6-11.9-6.4-3.6-13.7-3.7-20.4-1-6 2.4-9.6 7.8-8.7 14.3.5 3.6 2.3 6.7 3.7 9.9 2.1 4.6 3.3 9.2 3 14.1-7.3-7.6-14.7-15-22.1-22.4-1.2-1.3-3.1.3-2.4 1.8 4.5 9.2 10 17.7 16.2 25.7-6.4-.5-12.8-1-19.1-1.3-3.9-.2-5.9.4-6.2 4.8-.7 10.4 12.4 15.5 20.8 18.5-4.9 10.6-7.8 21.8-10.5 33.1-.7 3.2-1.5 6.4-2.2 9.6-.3 1.4-1 3.3-.6 4.8.9 3.5 5 3.6 8 3.8 10.7.8 23.1-2.4 32.3-7.9 9.2-5.4 15.2-15.5 19.5-25 9.1 7 18.4 13.7 27.7 20.4 1.4 1 3-1.2 1.8-2.4-4.6-4.6-9.2-9.3-13.8-13.9l-9.2-9.2c-.9-.9-2.1-1.8-2.9-2.9-1.1-1.6-.8-.5-.1-1.6 5.5-.4 10.9-1.1 16.3-2.1 3.1-.5 6.2-1.2 9.4-1.7 3-.6 6.6-.7 9.6-1.6.3.2.7.3 1.2.1.7-.3 1.5-.5 2.2-.8.5-.1.8-.4 1-.9.1-.3.2-.6.1-1v-.1c2-1.8 3.8-4.1 5-5.9 1.8-2.6.9-5.3-1.5-7.4zm-30.7-40.6c2.2-2.6 4.1-2.1 6.8-1.6 1.3.3 2.6.7 3.9 1.1-3.7.6-7.4 1-11.2 1.1.2-.2.3-.4.5-.6zm21.8 53.6c-3.5 1.1-7.6 1.4-11.2 2-8 1.5-15.9 2.9-24 3.4-.7 0-1.2.4-1.4 1.1-.3 1-.6 2-1 3-.2.5 0 1.1.4 1.5 4.7 4.7 9.3 9.4 14 14.1-4.7-3.5-9.4-7-14.1-10.6-.7-.5-1.9-.7-2.4.3-3.7 8.2-8.4 17.2-15.5 23-7.4 6.1-18.8 9.3-28.2 10-2.1.2-4.2.2-6.2 0-4.9-.4-5-2.5-4.1-6.5 1.1-4.6 2.1-9.2 3.2-13.8 2.4-9.6 5.2-19.1 9.5-28 .4-.9.1-1.9-.9-2.2-4.1-1.5-8.1-3.2-11.9-5.3-3.2-1.8-11.1-7.1-7.6-11.5.3-1.5 1.1-1.9 2.6-1.2 1.2.1 2.5.2 3.7.3 1.9.1 3.7.3 5.6.4 4.4.3 8.7.6 13.1.9 1.4.1 1.8-1.6 1.1-2.6-4.8-6-9.2-12.2-13-18.8 5.7 5.8 11.4 11.5 17.2 17.3.7.7 2.3.5 2.5-.7 1-6.2.2-12.1-2.4-17.8-1.9-4.4-5.1-9.1-4-14.1 1.1-5.1 5.8-7.4 10.5-8.5 9.1-2 15 2.3 21.9 7.4 5 3.6 10 5.9 15.9 6.7-4.5 10.4-5.1 21.6-5.8 32.9-.1.9.7 1.4 1.5 1.5 6.3.5 12.6 1.1 18.9 1.9 6 .7 13.7.4 19.2 3.2 3.2 3.2-4.5 9.9-7.1 10.7z"/></svg>