<svg xmlns="http://www.w3.org/2000/svg" viewBox="0 0 61.16 46.69"><defs><style>.cls-1,.cls-2{fill:#000}</style></defs><title>a</title><g id="레이어_2" data-name="레이어 2"><g id="레이어_1-2" data-name="레이어 1"><path class="cls-1" d="M53.76 0H5.47C2.45 0 0 3 0 6.72V40c0 3.7 2.45 6.72 5.47 6.72h48.3c4.08 0 7.4-3 7.4-6.72V6.72C61.16 3 57.84 0 53.76 0zM5.47 42.88A2.69 2.69 0 0 1 3.09 40V6.72A2.69 2.69 0 0 1 5.47 3.8h8v39.08zM57 40a3.08 3.08 0 0 1-3.21 2.92H17.63V3.8H41V16l4.75-4.41L50.52 16V3.8h3.25A3.08 3.08 0 0 1 57 6.72z"/><path class="cls-2" d="M32.74 18.29a2.21 2.21 0 0 0 1.62-.66 2.14 2.14 0 0 0 .64-1.57 2.29 2.29 0 1 0-4.57 0 2.14 2.14 0 0 0 .66 1.57 2.2 2.2 0 0 0 1.65.66zM28.22 22.86h2.28v13.61h4.52V20.58h-6.8v2.28z"/></g></g></svg>