<svg xmlns="http://www.w3.org/2000/svg" width="59" height="60"><path fill-rule="evenodd" opacity=".2" fill="#A7ACC1" d="M8.45 8.887l.19-.191a2.526 2.526 0 0 1 3.603 0l7.775 7.868a2.601 2.601 0 0 1 0 3.647l-.19.192a2.526 2.526 0 0 1-3.603 0L8.45 12.534a2.601 2.601 0 0 1 0-3.647zM2.547 27.42h10.996c1.407 0 2.547 1.155 2.547 2.579v.271c0 1.424-1.14 2.579-2.547 2.579H2.547c-1.407 0-2.548-1.155-2.548-2.579v-.271c0-1.424 1.141-2.579 2.548-2.579z"/><path fill-rule="evenodd" opacity=".22" fill="#A7ACC1" d="M8.371 47.735l7.776-7.869a2.526 2.526 0 0 1 3.603 0l.189.192a2.601 2.601 0 0 1 0 3.647l-7.775 7.868a2.526 2.526 0 0 1-3.603 0l-.19-.192a2.6 2.6 0 0 1 0-3.646z"/><path fill-rule="evenodd" opacity=".2" fill="#A7ACC1" d="M29.365 43.705h.269c1.407 0 2.547 1.155 2.547 2.579v11.128c0 1.424-1.14 2.578-2.547 2.578h-.269c-1.407 0-2.547-1.154-2.547-2.578V46.284c0-1.424 1.14-2.579 2.547-2.579zM38.981 39.787l.19-.192a2.526 2.526 0 0 1 3.603 0l7.776 7.869a2.602 2.602 0 0 1 0 3.646l-.19.192a2.527 2.527 0 0 1-3.604 0l-7.775-7.869a2.602 2.602 0 0 1 0-3.646z"/><path fill-rule="evenodd" opacity=".902" fill="#A7ACC1" d="M45.457 27.42h10.996c1.406 0 2.547 1.155 2.547 2.579v.271c0 1.424-1.141 2.579-2.547 2.579H45.457c-1.407 0-2.548-1.155-2.548-2.579v-.271c0-1.424 1.141-2.579 2.548-2.579z"/><path fill-rule="evenodd" opacity=".702" fill="#A7ACC1" d="M38.981 16.756l7.775-7.869a2.53 2.53 0 0 1 3.604 0l.19.192a2.603 2.603 0 0 1 0 3.647l-7.776 7.869a2.526 2.526 0 0 1-3.603 0l-.19-.192a2.603 2.603 0 0 1 0-3.647z"/><path fill-rule="evenodd" opacity=".502" fill="#A7ACC1" d="M29.365.007h.269c1.407 0 2.547 1.155 2.547 2.579v11.128c0 1.424-1.14 2.578-2.547 2.578h-.269c-1.407 0-2.547-1.154-2.547-2.578V2.586c0-1.424 1.14-2.579 2.547-2.579z"/></svg>