<svg xmlns="http://www.w3.org/2000/svg" width="25" height="25"><defs><filter id="a"><feFlood flood-color="#AFB2C0" flood-opacity="1" result="floodOut"/><feComposite operator="atop" in="floodOut" in2="SourceGraphic" result="compOut"/><feBlend in="compOut" in2="SourceGraphic"/></filter></defs><path fill-rule="evenodd" fill="#963699" d="M25.003 19.782c0 .829-.493 1.54-1.2 1.871a.762.762 0 0 1-.265.185l-8.049 3.154-1.411.006-.009.002h-2.345a.782.782 0 0 1-.782-.781v-.78c0-.431.35-.78.782-.78h2.345a.78.78 0 0 1 .782.78v.128l5.018-1.967a2.063 2.063 0 0 1-1.102-1.818v-5.209c0-1.142.931-2.072 2.076-2.072h2.084c.161 0 .317.023.468.058-.026-.591-.06-1.18-.086-1.412-.622-5.552-5.137-9.583-10.737-9.583-5.832 0-10.57 4.499-10.892 10.466l-.024.514a2.06 2.06 0 0 1 .419-.043h2.107c1.145 0 2.077.93 2.077 2.072v5.233a2.077 2.077 0 0 1-2.077 2.072H2.075a2.076 2.076 0 0 1-2.076-2.072v-5.233c0-.153.019-.302.051-.446l.002-.35c.004-.628.059-1.682.067-1.83C.486 5.138 5.895.003 12.572.003c6.41 0 11.58 4.614 12.291 10.971.062.554.143 2.49.14 3.004 0 .069-.023.132-.04.196.025.13.04.263.04.399v5.209zm-23.441.024c0 .283.23.512.513.512h2.107a.513.513 0 0 0 .514-.512v-5.233a.513.513 0 0 0-.514-.512H2.075a.513.513 0 0 0-.513.512v5.233zm21.878-5.233a.514.514 0 0 0-.513-.512h-2.084a.513.513 0 0 0-.513.512v5.209c0 .283.23.512.513.512h2.084a.513.513 0 0 0 .513-.512v-5.209z" filter="url(#a)"/></svg>