<svg xmlns="http://www.w3.org/2000/svg" viewBox="0 0 11.53 8.31"><defs><style>.cls-1,.cls-2{fill:#000}.cls-3,.cls-4{fill:#000;stroke:#000;stroke-miterlimit:10}.cls-3{stroke-width:.37px}.cls-4{stroke-linecap:round;stroke-width:.45px}</style></defs><title>자산 2</title><g id="레이어_2" data-name="레이어 2"><g id="圖層_4" data-name="圖層 4"><path class="cls-1" d="M9.15 8.31H.64A.64.64 0 0 1 0 7.68v-7A.64.64 0 0 1 .64 0h3a1 1 0 0 1 .75.38l.47.62a.37.37 0 0 0 .22.11h4.07c.35 0 .64 0 .64.37v6.2a.64.64 0 0 1-.64.63zM.67 7.65h8.45V1.73h-4a1 1 0 0 1-.75-.38L3.9.78a.37.37 0 0 0-.22-.11h-3z"/><path class="cls-2" d="M4.15 3.54c0-.05 0-.08.08 0l2 1.16a.05.05 0 0 1 0 .1l-2 1.16h-.08z"/><path class="cls-3" d="M4.15 3.54c0-.05 0-.08.08 0l2 1.16a.05.05 0 0 1 0 .1l-2 1.16h-.08z"/><path class="cls-4" d="M10.46 2.39v5.68M11.3 4.51v3.56"/></g></g></svg>