<svg
 xmlns="http://www.w3.org/2000/svg"
 xmlns:xlink="http://www.w3.org/1999/xlink"
 width="38px" height="32px">
<path fill-rule="evenodd"  fill="rgb(175, 178, 192)"
 d="M32.000,26.000 L32.000,32.000 L29.999,32.000 L29.999,26.000 L24.000,26.000 L24.000,24.000 L29.999,24.000 L29.999,18.000 L32.000,18.000 L32.000,24.000 L37.999,24.000 L37.999,26.000 L32.000,26.000 ZM23.000,7.000 C23.000,5.895 23.895,5.000 24.999,5.000 C26.104,5.000 27.000,5.895 27.000,7.000 C27.000,8.104 26.104,9.000 24.999,9.000 C23.895,9.000 23.000,8.104 23.000,7.000 ZM4.507,22.000 L13.487,5.022 L19.111,14.875 L21.487,10.993 L27.451,22.000 L4.507,22.000 ZM29.999,2.000 L1.999,2.000 L1.999,24.000 L21.999,24.000 L21.999,26.000 L-0.000,26.000 L-0.000,-0.000 L32.000,-0.000 L32.000,16.000 L29.999,16.000 L29.999,2.000 Z"/>
</svg>