<svg
 xmlns="http://www.w3.org/2000/svg"
 xmlns:xlink="http://www.w3.org/1999/xlink"
 width="59px" height="60px">
<path fill-rule="evenodd"  opacity="0.2" fill="rgb(167, 172, 193)"
 d="M8.450,8.887 L8.640,8.696 C9.634,7.689 11.248,7.689 12.243,8.696 L20.018,16.564 C21.013,17.571 21.013,19.204 20.018,20.211 L19.828,20.403 C18.833,21.410 17.220,21.410 16.225,20.403 L8.450,12.534 C7.455,11.527 7.455,9.894 8.450,8.887 Z"/>
<path fill-rule="evenodd"  opacity="0.2" fill="rgb(167, 172, 193)"
 d="M2.547,27.420 L13.543,27.420 C14.950,27.420 16.090,28.575 16.090,29.999 L16.090,30.270 C16.090,31.694 14.950,32.849 13.543,32.849 L2.547,32.849 C1.140,32.849 -0.001,31.694 -0.001,30.270 L-0.001,29.999 C-0.001,28.575 1.140,27.420 2.547,27.420 Z"/>
<path fill-rule="evenodd"  opacity="0.22" fill="rgb(167, 172, 193)"
 d="M8.371,47.735 L16.147,39.866 C17.141,38.859 18.755,38.859 19.750,39.866 L19.939,40.058 C20.934,41.065 20.934,42.698 19.939,43.705 L12.164,51.573 C11.169,52.580 9.556,52.580 8.561,51.573 L8.371,51.381 C7.376,50.374 7.376,48.742 8.371,47.735 Z"/>
<path fill-rule="evenodd"  opacity="0.2" fill="rgb(167, 172, 193)"
 d="M29.365,43.705 L29.634,43.705 C31.041,43.705 32.181,44.860 32.181,46.284 L32.181,57.412 C32.181,58.836 31.041,59.990 29.634,59.990 L29.365,59.990 C27.958,59.990 26.818,58.836 26.818,57.412 L26.818,46.284 C26.818,44.860 27.958,43.705 29.365,43.705 Z"/>
<path fill-rule="evenodd"  opacity="0.2" fill="rgb(167, 172, 193)"
 d="M38.981,39.787 L39.171,39.595 C40.166,38.588 41.779,38.588 42.774,39.595 L50.550,47.464 C51.544,48.470 51.544,50.103 50.550,51.110 L50.360,51.302 C49.365,52.309 47.752,52.309 46.756,51.302 L38.981,43.433 C37.987,42.426 37.987,40.794 38.981,39.787 Z"/>
<path fill-rule="evenodd"  opacity="0.902" fill="rgb(167, 172, 193)"
 d="M45.457,27.420 L56.453,27.420 C57.859,27.420 59.000,28.575 59.000,29.999 L59.000,30.270 C59.000,31.694 57.859,32.849 56.453,32.849 L45.457,32.849 C44.050,32.849 42.909,31.694 42.909,30.270 L42.909,29.999 C42.909,28.575 44.050,27.420 45.457,27.420 Z"/>
<path fill-rule="evenodd"  opacity="0.702" fill="rgb(167, 172, 193)"
 d="M38.981,16.756 L46.756,8.887 C47.752,7.881 49.365,7.881 50.360,8.887 L50.550,9.079 C51.544,10.086 51.544,11.719 50.550,12.726 L42.774,20.595 C41.779,21.602 40.166,21.602 39.171,20.595 L38.981,20.403 C37.987,19.396 37.987,17.763 38.981,16.756 Z"/>
<path fill-rule="evenodd"  opacity="0.502" fill="rgb(167, 172, 193)"
 d="M29.365,0.007 L29.634,0.007 C31.041,0.007 32.181,1.162 32.181,2.586 L32.181,13.714 C32.181,15.138 31.041,16.292 29.634,16.292 L29.365,16.292 C27.958,16.292 26.818,15.138 26.818,13.714 L26.818,2.586 C26.818,1.162 27.958,0.007 29.365,0.007 Z"/>
</svg>