<svg xmlns="http://www.w3.org/2000/svg" viewBox="0 0 11.53 8.31"><defs><style>.cls-1{fill:#000000;}.cls-2{fill:#000000;}.cls-3,.cls-4{fill:#000000;stroke:#000000;stroke-miterlimit:10;}.cls-3{stroke-width:0.37px;}.cls-4{stroke-linecap:round;stroke-width:0.45px;}</style></defs><title>자산 2</title><g id="레이어_2" data-name="레이어 2"><g id="圖層_4" data-name="圖層 4"><path class="cls-1" d="M9.15,8.31H.64A.64.64,0,0,1,0,7.68v-7A.64.64,0,0,1,.64,0h3a1,1,0,0,1,.75.38L4.86,1a.37.37,0,0,0,.22.11H9.15c.35,0,.64,0,.64.37V7.68A.64.64,0,0,1,9.15,8.31ZM.67,7.65H9.12V1.73h-4a1,1,0,0,1-.75-.38L3.9.78A.37.37,0,0,0,3.68.67h-3Z"/><path class="cls-2" d="M4.15,3.54c0-.05,0-.08.08,0l2,1.16a.05.05,0,0,1,0,.1l-2,1.16s-.08,0-.08,0Z"/><path class="cls-3" d="M4.15,3.54c0-.05,0-.08.08,0l2,1.16a.05.05,0,0,1,0,.1l-2,1.16s-.08,0-.08,0Z"/><line class="cls-4" x1="10.46" y1="2.39" x2="10.46" y2="8.07"/><line class="cls-4" x1="11.3" y1="4.51" x2="11.3" y2="8.07"/></g></g></svg>