<svg xmlns="http://www.w3.org/2000/svg" viewBox="0 0 31.52 23.15"><defs><style>.cls-1,.cls-2{stroke:#000;stroke-miterlimit:10;}.cls-1{stroke-width:0.75px;}.cls-2{stroke-width:0.8px;}</style></defs><title>자산 1</title><g id="레이어_2" data-name="레이어 2"><g id="Layer_1" data-name="Layer 1"><path class="cls-1" d="M16.28,11.1,11.5,8.34a.55.55,0,0,0-.83.48v5.52a.55.55,0,0,0,.83.48l4.78-2.76a.55.55,0,0,0,0-1Z"/><path class="cls-2" d="M30.31,2.74a1.65,1.65,0,0,0-1.61,0L24,5.47V2.24A2.06,2.06,0,0,0,21.75.4H2.62A2.06,2.06,0,0,0,.4,2.24V20.92a2.06,2.06,0,0,0,2.22,1.84H21.75A2.06,2.06,0,0,0,24,20.92V17.68l4.73,2.73A1.61,1.61,0,0,0,31.12,19V4.13A1.63,1.63,0,0,0,30.31,2.74ZM30.12,19a.61.61,0,0,1-.92.53l-5.24-3L23,16v5c0,.45-.56.84-1.22.84H2.62c-.66,0-1.22-.38-1.22-.84V2.24c0-.45.56-.84,1.22-.84H21.75c.66,0,1.22.38,1.22.84v5l1-.58,5.23-3a.62.62,0,0,1,.31-.08.63.63,0,0,1,.31.08.62.62,0,0,1,.31.53Z"/></g></g></svg>